<?xml version="1.0" encoding="UTF-8" standalone="no"?>
<svg width="24" height="24" viewBox="0 0 24 24" fill="none" xmlns="http://www.w3.org/2000/svg">
  <defs>
    <linearGradient id="lightning-gradient" x1="0%" y1="0%" x2="100%" y2="100%">
      <stop offset="0%" style="stop-color:#fbbf24;stop-opacity:1" />
      <stop offset="50%" style="stop-color:#f59e0b;stop-opacity:1" />
      <stop offset="100%" style="stop-color:#d97706;stop-opacity:1" />
    </linearGradient>
    <linearGradient id="lightning-gradient-dark" x1="0%" y1="0%" x2="100%" y2="100%">
      <stop offset="0%" style="stop-color:#60a5fa;stop-opacity:1" />
      <stop offset="50%" style="stop-color:#3b82f6;stop-opacity:1" />
      <stop offset="100%" style="stop-color:#2563eb;stop-opacity:1" />
    </linearGradient>
  </defs>

  <!-- Lightning bolt shape -->
  <g>
    <!-- Main lightning bolt -->
    <path d="M13 2L4.09 12.97C3.85 13.35 4.12 13.84 4.56 13.84H9L8 22L16.91 11.03C17.15 10.65 16.88 10.16 16.44 10.16H12L13 2Z"
          fill="url(#lightning-gradient)"
          class="dark:hidden"
          stroke="#f59e0b"
          stroke-width="0.5"
          stroke-linejoin="round"/>

    <!-- Dark mode lightning bolt -->
    <path d="M13 2L4.09 12.97C3.85 13.35 4.12 13.84 4.56 13.84H9L8 22L16.91 11.03C17.15 10.65 16.88 10.16 16.44 10.16H12L13 2Z"
          fill="url(#lightning-gradient-dark)"
          class="hidden dark:block"
          stroke="#3b82f6"
          stroke-width="0.5"
          stroke-linejoin="round"/>

    <!-- Inner highlight for depth -->
    <path d="M12.5 3L5.5 12H8.5L7.5 20L14.5 11H11.5L12.5 3Z"
          fill="rgba(255,255,255,0.3)"
          class="dark:hidden"/>

    <!-- Dark mode inner highlight -->
    <path d="M12.5 3L5.5 12H8.5L7.5 20L14.5 11H11.5L12.5 3Z"
          fill="rgba(255,255,255,0.2)"
          class="hidden dark:block"/>
  </g>
</svg>
